<svg id="Capa_1" data-name="Capa 1" xmlns="http://www.w3.org/2000/svg" viewBox="0 0 39.1 44.87"><title>analyze</title><path d="M274.87,274.56l-4.82-4.79a11.73,11.73,0,0,0,2.08-6.68,12.08,12.08,0,0,0-.35-2.88.66.66,0,1,0-1.28.32,10.43,10.43,0,1,1-1-2.6.66.66,0,0,0,1.14-.66,11.8,11.8,0,0,0-2.24-2.81v-8.93a.66.66,0,0,0-.19-.46l-11.31-11.31a.66.66,0,0,0-.46-.19H237.11a.65.65,0,0,0-.66.65V256.8a.66.66,0,1,0,1.31,0V234.88h18v4.65a.66.66,0,1,0,1.31,0v-3.72l9.07,9.07h-9.07v-2.37a.66.66,0,1,0-1.31,0v3a.65.65,0,0,0,.66.66h10.65v7.22a11.75,11.75,0,0,0-14.75,1.11H240.18a.66.66,0,0,0,0,1.32H251.1a11.73,11.73,0,0,0-2,3.77h-8.94a.66.66,0,1,0,0,1.31h8.61a11.79,11.79,0,0,0-.09,3.77h-8.52a.66.66,0,1,0,0,1.32H249a11.73,11.73,0,0,0,3.89,6.13H237.76V259.78a.66.66,0,1,0-1.31,0v13a.65.65,0,0,0,.66.66H254.8a11.75,11.75,0,0,0,12.06-.56l4.83,4.87a2.26,2.26,0,0,0,3.86-1.61,2.19,2.19,0,0,0-.68-1.6ZM268,272.14l1.31-1.3.93.93-1.31,1.31Zm6,4.7a1,1,0,0,1-1.34,0L269.81,274l1.32-1.32,2.82,2.8a1,1,0,0,1,.29.68,1,1,0,0,1-.28.67Z" transform="translate(-236.45 -233.57)"/><path d="M260.36,254.51a8.58,8.58,0,1,0,8.58,8.58,8.58,8.58,0,0,0-8.58-8.58Zm-6.85,6.17a7.22,7.22,0,0,1,.43-1h8.55a.61.61,0,0,1,.61.62.61.61,0,0,1-.61.61h-9.06a2.25,2.25,0,0,1,.08-.24Zm6.85,9.68a7.26,7.26,0,0,1-5.9-3h1.72a.66.66,0,0,0,0-1.31h-2.47a7.72,7.72,0,0,1-.41-1.23h9.19a.62.62,0,0,1,0,1.23h-3.33a.66.66,0,1,0,0,1.31h3.33a1.93,1.93,0,0,0,0-3.86h-9.38c0-.12,0-.24,0-.37a7.92,7.92,0,0,1,.05-.85h9.34a1.93,1.93,0,1,0,0-3.86h-7.65a7.26,7.26,0,1,1,5.52,12Z" transform="translate(-236.45 -233.57)"/><path d="M240.18,250.75h7.19a.66.66,0,0,0,0-1.31h-7.19a.66.66,0,1,0,0,1.31Z" transform="translate(-236.45 -233.57)"/></svg>