<svg id="Capa_1" data-name="Capa 1" xmlns="http://www.w3.org/2000/svg" viewBox="0 0 35.94 40"><title>dice</title><path d="M245.06,258.81a2.35,2.35,0,1,0,2.35,2.35A2.35,2.35,0,0,0,245.06,258.81Zm0,3.13a.78.78,0,0,1-.78-.78.78.78,0,1,1,1.56,0A.78.78,0,0,1,245.06,261.94Z" transform="translate(-238.03 -236)"/><path d="M245.06,268.19a2.34,2.34,0,1,0,2.35,2.34A2.34,2.34,0,0,0,245.06,268.19Zm0,3.12a.78.78,0,1,1,.78-.78A.78.78,0,0,1,245.06,271.31Z" transform="translate(-238.03 -236)"/><path d="M254.44,258.81a2.35,2.35,0,1,0,2.34,2.35A2.35,2.35,0,0,0,254.44,258.81Zm0,3.13a.78.78,0,0,1-.78-.78.78.78,0,1,1,1.56,0A.78.78,0,0,1,254.44,261.94Z" transform="translate(-238.03 -236)"/><path d="M273.28,247.74l-11-11.05a2.33,2.33,0,0,0-3.31,0l-11.05,11.05a2.34,2.34,0,0,0,0,3.31l4.64,4.64H241.94a2.35,2.35,0,0,0-2.35,2.34v15.63a2.35,2.35,0,0,0,2.35,2.34h15.62a2.35,2.35,0,0,0,2.35-2.34v-11a2.32,2.32,0,0,0,2.32-.59l11-11.05A2.33,2.33,0,0,0,273.28,247.74Zm-14.94,25.92a.78.78,0,0,1-.78.78H241.94a.78.78,0,0,1-.78-.78V258a.78.78,0,0,1,.78-.78h15.62a.78.78,0,0,1,.78.78v15.63Zm13.84-23.72L261.13,261a.78.78,0,0,1-1.11,0l-.11-.11V258a2.35,2.35,0,0,0-2.35-2.34h-2.84L249,249.94a.77.77,0,0,1,0-1.1l11-11.05a.8.8,0,0,1,1.11,0l11.05,11.05A.78.78,0,0,1,272.18,249.94Z" transform="translate(-238.03 -236)"/><path d="M255.6,247.74a2.34,2.34,0,1,0,0,3.31A2.33,2.33,0,0,0,255.6,247.74Zm-1.1,2.2a.78.78,0,1,1,0-1.1A.78.78,0,0,1,254.5,249.94Z" transform="translate(-238.03 -236)"/><path d="M262.23,247.74a2.34,2.34,0,1,0,0,3.31h0A2.33,2.33,0,0,0,262.23,247.74Zm-1.1,2.2a.78.78,0,1,1,0-1.1A.78.78,0,0,1,261.13,249.94Z" transform="translate(-238.03 -236)"/><path d="M268.86,247.74a2.34,2.34,0,1,0,0,3.31A2.33,2.33,0,0,0,268.86,247.74Zm-1.1,2.2a.78.78,0,1,1,0-1.1A.78.78,0,0,1,267.76,249.94Z" transform="translate(-238.03 -236)"/><path d="M254.44,268.19a2.34,2.34,0,1,0,2.34,2.34A2.35,2.35,0,0,0,254.44,268.19Zm0,3.12a.78.78,0,1,1,.78-.78A.78.78,0,0,1,254.44,271.31Z" transform="translate(-238.03 -236)"/><path d="M270.06,261.47a.78.78,0,0,0-.78.78,7,7,0,0,1-7,7,.78.78,0,0,0,0,1.56,8.6,8.6,0,0,0,8.59-8.59A.78.78,0,0,0,270.06,261.47Z" transform="translate(-238.03 -236)"/><path d="M266.94,261.47a.78.78,0,0,0-.78.78,3.92,3.92,0,0,1-3.91,3.91.78.78,0,0,0,0,1.56,5.47,5.47,0,0,0,5.47-5.47A.78.78,0,0,0,266.94,261.47Z" transform="translate(-238.03 -236)"/><path d="M246.63,239.13a8.6,8.6,0,0,0-8.6,8.59.78.78,0,1,0,1.56,0,7,7,0,0,1,7-7,.78.78,0,0,0,0-1.56Z" transform="translate(-238.03 -236)"/><path d="M246.63,242.25a5.47,5.47,0,0,0-5.47,5.47.78.78,0,1,0,1.56,0,3.92,3.92,0,0,1,3.91-3.91.78.78,0,0,0,0-1.56Z" transform="translate(-238.03 -236)"/></svg>