<svg id="Capa_1" data-name="Capa 1" xmlns="http://www.w3.org/2000/svg" viewBox="0 0 42 31.92"><title>love-and-romance</title><path d="M278.25,250.28a8,8,0,0,0-5.66-2.35,7.14,7.14,0,0,0-.93.06,9.7,9.7,0,0,0-16.4-5.11l0,.05-.06-.05a9.69,9.69,0,1,0-13.71,13.71l13.77,12.75,4.51-4.18,7.34,6.8,11.16-10.33,0,0a8,8,0,0,0,0-11.32Zm-23,15.7-12.05-11.14a7.24,7.24,0,0,1,5.14-12.34,7.15,7.15,0,0,1,5.11,2.12l1.8,1.79,1.79-1.79a7.24,7.24,0,0,1,12.27,4,8,8,0,0,0-2.21,1.5,8,8,0,0,0-11.19,11.45l2,1.89Zm21.32-6.13-9.47,8.76-9.47-8.76a5.55,5.55,0,0,1,7.86-7.83l1.61,1.61,1.61-1.61a5.55,5.55,0,0,1,7.86,7.83Z" transform="translate(-238.6 -240.04)"/></svg>