<svg id="Capa_1" data-name="Capa 1" xmlns="http://www.w3.org/2000/svg" viewBox="0 0 40 32"><title>price</title><rect x="2.67" y="6.67" width="1.33" height="16"/><rect x="6.67" y="6.67" width="2.67" height="16"/><rect x="10.67" y="6.67" width="1.33" height="16"/><rect x="14.67" y="6.67" width="2.67" height="16"/><rect x="18.67" y="6.67" width="2.67" height="16"/><rect x="36" y="6.67" width="1.33" height="16"/><rect x="30.67" y="6.67" width="2.67" height="16"/><rect x="28" y="6.67" width="1.33" height="16"/><rect x="24" y="6.67" width="1.33" height="16"/><rect x="2.67" y="24" width="1.33" height="1.33"/><rect x="8" y="24" width="1.33" height="1.33"/><rect x="10.67" y="24" width="1.33" height="1.33"/><rect x="13.33" y="24" width="1.33" height="1.33"/><rect x="16" y="24" width="1.33" height="1.33"/><rect x="5.33" y="24" width="1.33" height="1.33"/><rect x="18.67" y="24" width="1.33" height="1.33"/><rect x="21.33" y="24" width="1.33" height="1.33"/><rect x="24" y="24" width="1.33" height="1.33"/><rect x="26.67" y="24" width="1.33" height="1.33"/><rect x="29.33" y="24" width="1.33" height="1.33"/><rect x="32" y="24" width="1.33" height="1.33"/><rect x="34.67" y="24" width="1.33" height="1.33"/><polygon points="0 0 0 5.33 1.33 5.33 1.33 1.33 5.33 1.33 5.33 0 0 0"/><polygon points="34.67 0 34.67 1.33 38.67 1.33 38.67 5.33 40 5.33 40 0 34.67 0"/><polygon points="38.67 26.67 38.67 30.67 34.67 30.67 34.67 32 40 32 40 26.67 38.67 26.67"/><polygon points="1.33 30.67 1.33 26.67 0 26.67 0 32 5.33 32 5.33 30.67 1.33 30.67"/><polygon points="4 28 4 26.67 2.67 26.67 2.67 29.33 5.33 29.33 5.33 28 4 28"/><polygon points="2.67 2.67 2.67 5.33 4 5.33 4 4 5.33 4 5.33 2.67 2.67 2.67"/><polygon points="34.67 2.67 34.67 4 36 4 36 5.33 37.33 5.33 37.33 2.67 34.67 2.67"/><polygon points="36 26.67 36 28 34.67 28 34.67 29.33 37.33 29.33 37.33 26.67 36 26.67"/><rect x="6.67" y="2.67" width="26.67" height="1.33"/><rect x="6.67" y="28" width="26.67" height="1.33"/></svg>