<svg id="Layer_1" data-name="Layer 1" xmlns="http://www.w3.org/2000/svg" viewBox="0 0 32.85 33.23"><title>search</title><path d="M254.94,230.55l0-.14s0,0,0,0a.71.71,0,0,0-.11-.17l-6.65-6.64a.36.36,0,0,0-.16-.11l-.05,0-.15,0H231.13a2.78,2.78,0,0,0-2.77,2.77v4.08a10.5,10.5,0,0,0,0,19.22v4.4a2.78,2.78,0,0,0,2.77,2.77h21a2.78,2.78,0,0,0,2.77-2.77v-23.3Zm-1.89-.52h-4.2a.55.55,0,0,1-.55-.55v-4.2Zm-29.84,9.81a9.42,9.42,0,0,1,9.42-9.42c.31,0,.63,0,.93.05a9.39,9.39,0,0,1,8.37,8,9.57,9.57,0,0,1,.11,1.41,9.27,9.27,0,0,1-1.44,5,9.42,9.42,0,0,1-17.39-5Zm15.85,8.32.23-.18a9.71,9.71,0,0,0,1.48-1.48l.18-.23c.07-.09.14-.17.2-.26l4.72,4.73a1.64,1.64,0,0,1,0,2.34,1.68,1.68,0,0,1-2.34,0l-4.73-4.72Zm13.11,7.35h-21a1.66,1.66,0,0,1-1.66-1.66v-4l.1,0,.27.07.63.16.31.06.64.09.28,0c.31,0,.62,0,.93,0a10.51,10.51,0,0,0,5.22-1.39l4.89,4.89a2.77,2.77,0,1,0,3.92-3.91l-4.9-4.89a10.51,10.51,0,0,0,1.39-5.22c0-.35,0-.7-.05-1a10.52,10.52,0,0,0-10.47-9.48c-.31,0-.62,0-.93,0l-.29,0-.63.09-.32.06-.62.15-.27.08-.11,0v-3.65a1.67,1.67,0,0,1,1.67-1.66h16.06v5a1.66,1.66,0,0,0,1.66,1.66h5v22.71A1.67,1.67,0,0,1,252.17,255.51Z" transform="translate(-222.09 -223.38)"/><path d="M245,227.26a.55.55,0,0,0-.55-.55H232.23a.56.56,0,0,0,0,1.11h12.19A.55.55,0,0,0,245,227.26Z" transform="translate(-222.09 -223.38)"/><path d="M251.07,236.68h-6.65a.55.55,0,0,0,0,1.1h6.65a.55.55,0,0,0,0-1.1Z" transform="translate(-222.09 -223.38)"/><path d="M251.07,240h-6.65a.56.56,0,0,0,0,1.11h6.65a.56.56,0,0,0,0-1.11Z" transform="translate(-222.09 -223.38)"/><path d="M251.62,243.88a.56.56,0,0,0-.55-.56h-7.2a.56.56,0,1,0,0,1.11h7.2A.55.55,0,0,0,251.62,243.88Z" transform="translate(-222.09 -223.38)"/><path d="M251.62,247.2a.55.55,0,0,0-.55-.55h-5a.55.55,0,0,0,0,1.1h5A.55.55,0,0,0,251.62,247.2Z" transform="translate(-222.09 -223.38)"/><path d="M245,230.58a.55.55,0,0,0-.55-.55H240a.56.56,0,1,0,0,1.11h4.43A.55.55,0,0,0,245,230.58Z" transform="translate(-222.09 -223.38)"/><path d="M251.62,233.91a.56.56,0,0,0-.55-.56h-8.31a.56.56,0,1,0,0,1.11h8.31A.55.55,0,0,0,251.62,233.91Z" transform="translate(-222.09 -223.38)"/><path d="M230.57,237.23h3.88a.56.56,0,0,0,0-1.11h-3.88a.56.56,0,0,0,0,1.11Z" transform="translate(-222.09 -223.38)"/><path d="M237.22,240a.55.55,0,0,0-.55-.55h-8.31a.55.55,0,1,0,0,1.1h8.31A.55.55,0,0,0,237.22,240Z" transform="translate(-222.09 -223.38)"/><path d="M234.45,242.77h-3.88a.56.56,0,0,0,0,1.11h3.88a.56.56,0,0,0,0-1.11Z" transform="translate(-222.09 -223.38)"/><path d="M236.57,247.14A8,8,0,0,0,239.8,244l.13-.23a.67.67,0,0,0,.06-.12,4.44,4.44,0,0,0,.24-.49c.07-.16.13-.32.19-.48l.06-.14a8.32,8.32,0,1,0-3.91,4.6Zm-7.39-1a6.84,6.84,0,0,1-1.64-1.23,7.39,7.39,0,0,1-.91-1.1q-.19-.3-.36-.6a7.2,7.2,0,1,1,12.69,0h0a7,7,0,0,1-2.91,2.91,7.16,7.16,0,0,1-6.87,0Z" transform="translate(-222.09 -223.38)"/><path d="M252.17,250a.55.55,0,0,0-.55.55v2.22a.55.55,0,0,1-.55.55h-2.22a.56.56,0,0,0,0,1.11h2.22a1.66,1.66,0,0,0,1.66-1.66v-2.22A.56.56,0,0,0,252.17,250Z" transform="translate(-222.09 -223.38)"/></svg>