<svg id="Layer_3" data-name="Layer 3" xmlns="http://www.w3.org/2000/svg" viewBox="0 0 37 37"><title>sydney-opera-house</title><path d="M274.33,255.58l-17.91-17.91a.6.6,0,0,0-.84,0l-17.91,17.91a.6.6,0,0,0,0,.84.64.64,0,0,0,.43.18h3v14.32h-.6a.59.59,0,0,0-.59.6v2.38a.59.59,0,0,0,.59.6h31a.59.59,0,0,0,.59-.6v-2.38a.59.59,0,0,0-.59-.6h-.6V256.6h3a.6.6,0,0,0,.6-.6A.59.59,0,0,0,274.33,255.58Zm-3.41,17.73H241.08v-1.2h29.84ZM253,270.92h-7.17V260.18H253Zm1.19,0V259.58a.6.6,0,0,0-.6-.6h-8.35a.6.6,0,0,0-.6.6v11.34h-2.39V256.25L256,242.52l13.73,13.73v14.67Zm16.36-15.52-14.15-14.14a.58.58,0,0,0-.84,0L241.43,255.4h-1.89L256,238.94l16.46,16.46Z" transform="translate(-237.5 -237.5)"/><path d="M260.18,252.42A4.18,4.18,0,1,0,256,256.6,4.18,4.18,0,0,0,260.18,252.42Zm-7.16,0a3,3,0,1,1,3,3A3,3,0,0,1,253,252.42Z" transform="translate(-237.5 -237.5)"/><path d="M267.94,259H256a.6.6,0,0,0-.6.6v8.36a.59.59,0,0,0,.6.59h11.94a.58.58,0,0,0,.59-.59v-8.36A.59.59,0,0,0,267.94,259Zm-.6,4.18h-4.78v-3h4.78Zm-6-3v3H256.6v-3Zm-4.77,4.17h4.77v3H256.6Zm6,3v-3h4.78v3Z" transform="translate(-237.5 -237.5)"/><rect x="9.55" y="26.26" width="1.19" height="2.39"/></svg>